<svg width="14" height="19" viewBox="0 0 14 19" fill="none" xmlns="http://www.w3.org/2000/svg">
<path d="M7 19.0001C5.73694 17.9227 4.56619 16.7416 3.5 15.4691C1.9 13.5581 8.78894e-07 10.7121 8.78894e-07 8.00009C-0.00069302 6.61505 0.409509 5.26094 1.17869 4.10912C1.94788 2.9573 3.04147 2.05955 4.32107 1.52949C5.60067 0.999429 7.00875 0.860882 8.36712 1.13138C9.72548 1.40189 10.9731 2.06928 11.952 3.04909C12.6038 3.69795 13.1203 4.46963 13.4719 5.31947C13.8234 6.1693 14.0029 7.08042 14 8.00009C14 10.7121 12.1 13.5581 10.5 15.4691C9.4338 16.7416 8.26306 17.9227 7 19.0001ZM7 3.00009C5.67441 3.00168 4.40356 3.52897 3.46622 4.46631C2.52888 5.40365 2.00159 6.6745 2 8.00009C2 9.16609 2.527 11.1851 5.035 14.1861C5.65313 14.9242 6.30901 15.6298 7 16.3001C7.69102 15.6305 8.34721 14.9259 8.966 14.1891C11.473 11.1841 12 9.16509 12 8.00009C11.9984 6.6745 11.4711 5.40365 10.5338 4.46631C9.59644 3.52897 8.3256 3.00168 7 3.00009ZM7 11.0001C6.20435 11.0001 5.44129 10.684 4.87868 10.1214C4.31607 9.5588 4 8.79574 4 8.00009C4 7.20444 4.31607 6.44138 4.87868 5.87877C5.44129 5.31616 6.20435 5.00009 7 5.00009C7.79565 5.00009 8.55871 5.31616 9.12132 5.87877C9.68393 6.44138 10 7.20444 10 8.00009C10 8.79574 9.68393 9.5588 9.12132 10.1214C8.55871 10.684 7.79565 11.0001 7 11.0001Z" fill="white"/>
</svg>
